<svg width="65" height="88" viewBox="0 0 65 88" fill="none" xmlns="http://www.w3.org/2000/svg">
<path d="M32.84 87.2C25.96 87.2 20.12 85.4 15.32 81.8C10.6 78.12 7 73.04 4.52 66.56C2.04 60 0.8 52.48 0.8 44C0.8 35.44 2.04 27.92 4.52 21.44C7 14.96 10.6 9.92 15.32 6.32C20.12 2.64 25.96 0.799995 32.84 0.799995C39.72 0.799995 45.52 2.64 50.24 6.32C55.04 9.92 58.68 14.96 61.16 21.44C63.64 27.92 64.88 35.44 64.88 44C64.88 52.48 63.64 60 61.16 66.56C58.68 73.04 55.04 78.12 50.24 81.8C45.52 85.4 39.72 87.2 32.84 87.2ZM32.84 72.8C36.2 72.8 39.08 71.76 41.48 69.68C43.96 67.52 45.88 64.32 47.24 60.08C48.6 55.76 49.28 50.4 49.28 44C49.28 37.52 48.6 32.16 47.24 27.92C45.88 23.68 43.96 20.52 41.48 18.44C39.08 16.28 36.2 15.2 32.84 15.2C29.56 15.2 26.68 16.28 24.2 18.44C21.72 20.52 19.8 23.68 18.44 27.92C17.08 32.16 16.4 37.52 16.4 44C16.4 50.4 17.08 55.76 18.44 60.08C19.8 64.32 21.72 67.52 24.2 69.68C26.68 71.76 29.56 72.8 32.84 72.8Z" fill="#FFB23F"/>
</svg>
