<svg width="159" height="202" viewBox="0 0 159 202" fill="none" xmlns="http://www.w3.org/2000/svg">
<path d="M108.971 202C104.179 202 100.154 200.365 96.8951 197.094C93.6365 193.631 92.0072 189.399 92.0072 184.397V48.7686L98.0452 50.2114L42.5533 119.18L41.1157 115.429H142.899C147.499 115.429 151.333 116.968 154.4 120.046C157.467 123.124 159 126.971 159 131.589C159 136.013 157.467 139.765 154.4 142.843C151.333 145.729 147.499 147.171 142.899 147.171H17.2514C13.226 147.171 9.29656 145.536 5.46293 142.266C1.82098 138.995 0 134.955 0 130.146C0 125.913 1.43761 122.066 4.31284 118.603L95.17 6.92571C96.7034 4.80952 98.7161 3.17429 101.208 2.02001C103.7 0.673336 106.479 0 109.546 0C114.53 0 118.555 1.73143 121.622 5.19429C124.881 8.46477 126.51 12.601 126.51 17.6029V184.397C126.51 189.399 124.785 193.631 121.335 197.094C118.076 200.365 113.955 202 108.971 202Z" fill="#FFB23F"/>
</svg>
